<?xml version="1.0" encoding="utf-8"?>
<!-- Generator: Adobe Illustrator 18.1.1, SVG Export Plug-In . SVG Version: 6.00 Build 0)  -->
<svg version="1.0" id="Layer_1" xmlns="http://www.w3.org/2000/svg" xmlns:xlink="http://www.w3.org/1999/xlink" x="0px" y="0px"
	 viewBox="0 0 140 140" enable-background="new 0 0 140 140" xml:space="preserve">
<circle fill="#01B49E" cx="69.9" cy="69.9" r="67.1"/>
<g>
	<path fill="#FFFFFF" d="M59.5,68.8h10.3V67c0-1.8-1.2-3.4-2.7-3.9l-5.6-1.4v-1.9c2.3-1.5,3.8-4.2,3.8-7.3c0-4.7-3.5-8.5-7.8-8.5
		s-7.8,3.8-7.8,8.5c0,3,1.5,5.6,3.6,7.1v2L47.8,63c-1.6,0.5-2.9,2.1-2.9,3.8v1.9h12.3C57.2,68.8,59.5,68.8,59.5,68.8z M57.5,45.8
		c2.8,0,5.1,2.1,5.8,4.9c-0.4,0.2-1,0.3-1.6,0.2c-0.5-0.1-1.6-0.4-2.2-1.4C59.3,49.2,59,49,58.7,49c-0.3-0.1-0.5,0.1-0.8,0.2
		c-1.9,1.9-4.6,1.9-6.3,1.2C52.5,47.8,54.7,45.8,57.5,45.8z M51.4,52.5c0-0.1,0-0.1,0-0.2c2,0.7,4.9,0.5,7.1-1
		c0.7,0.8,1.7,1.3,2.9,1.5c0.2,0.1,0.5,0.1,0.8,0.1c0.5,0,0.9-0.1,1.3-0.2c-0.1,3.6-2.7,6.5-6,6.5C54.1,59.1,51.4,56.1,51.4,52.5z
		 M46.7,66.9L46.7,66.9c0-0.9,0.7-1.9,1.6-2.1l6.7-1.8v-2.4c0.8,0.2,1.6,0.4,2.4,0.4c0.8,0,1.5-0.2,2.2-0.3V63l6.9,1.8
		c0.8,0.2,1.3,1.2,1.3,2.1h-8.4h-2.4L46.7,66.9L46.7,66.9z"/>
	<path fill="#FFFFFF" d="M96.4,63l-5.6-1.4v-1.9c2.3-1.5,3.8-4.2,3.8-7.3c0-4.7-3.5-8.5-7.8-8.5S79,47.8,79,52.5
		c0,3,1.5,5.6,3.6,7.1v2L77.2,63c-1.6,0.5-2.9,2.1-2.9,3.8v1.9h12.3H89h10.3V67C99.2,65.2,98,63.4,96.4,63z M86.9,45.8
		c2.8,0,5.1,2.1,5.8,4.9c-0.4,0.2-1,0.3-1.6,0.2c-0.5-0.1-1.6-0.4-2.2-1.4c-0.2-0.2-0.4-0.5-0.7-0.5c-0.3-0.1-0.5,0.1-0.8,0.2
		c-1.9,1.9-4.6,1.9-6.3,1.2C81.8,47.8,84.1,45.8,86.9,45.8z M80.8,52.5c0-0.1,0-0.1,0-0.2c2,0.7,4.9,0.5,7.1-1
		c0.7,0.8,1.7,1.3,2.9,1.5c0.2,0.1,0.5,0.1,0.8,0.1c0.5,0,0.9-0.1,1.3-0.2c-0.1,3.6-2.7,6.5-6,6.5C83.5,59.1,80.8,56.1,80.8,52.5z
		 M88.9,66.9h-2.4H76.2v-0.1c0-0.9,0.7-1.8,1.6-2l6.7-1.8v-2.4c0.8,0.2,1.6,0.4,2.4,0.4c0.8,0,1.5-0.2,2.2-0.3V63l6.9,1.8
		c0.8,0.2,1.3,1.2,1.3,2.1L88.9,66.9L88.9,66.9z"/>
	<path fill="#FFFFFF" d="M81.2,92.3L76,90.8v-2c2.1-1.6,3.4-4.2,3.4-7.1c0-4.7-3.5-8.5-7.8-8.5c-4.3,0-7.8,3.8-7.8,8.5
		c0,2.9,1.4,5.5,3.4,7.1v2l-5.2,1.5c-1.6,0.5-2.9,2.1-2.9,3.8v2h11.4h2.4h11.4V96C84.1,94.4,82.8,92.7,81.2,92.3z M71.6,74.9
		c2.7,0,5.1,2,5.8,4.9c-0.4,0.2-1,0.3-1.7,0.2c-0.5-0.1-1.6-0.4-2.1-1.4c-0.2-0.2-0.4-0.5-0.7-0.5c-0.3-0.1-0.5,0.1-0.8,0.2
		c-1.9,1.9-4.6,1.9-6.3,1.2C66.6,76.9,68.9,74.9,71.6,74.9z M65.5,81.6c0-0.1,0-0.1,0-0.2c2,0.7,4.9,0.5,7.1-1
		c0.7,0.8,1.7,1.3,2.8,1.4c0.2,0,0.5,0.1,0.8,0.1c0.5,0,1-0.1,1.4-0.2c0,3.6-2.7,6.6-6,6.6S65.5,85.3,65.5,81.6z M82.2,96.3h-9.5
		h-2.4h-9.5v-0.2c0-0.9,0.7-1.8,1.6-2l6.6-1.9v-2.4c0.8,0.3,1.6,0.5,2.6,0.5c0.9,0,1.7-0.2,2.6-0.5v2.4l6.6,1.9
		c0.9,0.2,1.6,1.2,1.6,2v0.2H82.2z"/>
	<path fill="#FFFFFF" d="M59.5,76.9l-5.8-5.8c-0.4-0.4-0.9-0.4-1.3,0c-0.4,0.4-0.4,0.9,0,1.3l5.8,5.8c0.2,0.2,0.4,0.2,0.6,0.2
		s0.5-0.1,0.6-0.2C59.8,77.8,59.8,77.2,59.5,76.9z"/>
	<path fill="#FFFFFF" d="M89.4,71.1l-5.8,5.8c-0.4,0.4-0.4,0.9,0,1.3c0.2,0.2,0.4,0.2,0.6,0.2s0.5-0.1,0.6-0.2l5.8-5.8
		c0.4-0.4,0.4-0.9,0-1.3C90.4,70.7,89.8,70.7,89.4,71.1z"/>
</g>
</svg>
