<?xml version="1.0" encoding="utf-8"?>
<!-- Generator: Adobe Illustrator 18.1.1, SVG Export Plug-In . SVG Version: 6.00 Build 0)  -->
<svg version="1.1" id="Layer_1" xmlns="http://www.w3.org/2000/svg" xmlns:xlink="http://www.w3.org/1999/xlink" x="0px" y="0px"
	 viewBox="0 0 100 100" enable-background="new 0 0 100 100" xml:space="preserve">
<g>
	<path fill="#FFF" d="M81.4,44.5l0-6.6C81,32.4,77.1,27.7,71.8,26l-3.1-10.4l-39.5,9.9l-6.1,0l-0.3,0c-3.7,0.9-6.7,3.9-7.7,7.7
		l0,39.1l0,0.3c1,3.8,4.1,6.8,7.8,7.4l0.2,0l46.4,0c6.4-0.6,11.5-5.8,11.9-12.1V61c3-0.3,4.7-2.4,4.7-5.9v-3.6
		C86.1,48.2,84.5,44.8,81.4,44.5z M67,18.5l2.1,7l-30.3,0L67,18.5z M69.3,77.6H23.1c-2.7-0.5-5-2.6-5.7-5.5V33.6
		c0.7-2.8,3-5,5.8-5.8h46.1c5.3,0.8,9.4,5.1,9.8,10.1v6.5l-10.4,0c-3.8-0.3-6.2,3.6-6.2,7.1v3.6c0,3.5,2.5,5.9,6.1,5.9H79l0,6.7
		C78.7,72.9,74.4,77.2,69.3,77.6z M83.8,55.1c0,3.2-1.8,3.6-3.2,3.6H68.5c-1.1,0-3.7-0.3-3.7-3.6v-3.6c0-2.3,1.4-4.7,3.5-4.7
		c0.1,0,0.1,0,0.3,0l12.1,0c2-0.2,3.1,2.3,3.1,4.7V55.1z"/>
	<circle fill="#FFF" cx="70.7" cy="52.8" r="2.4"/>
	<path fill="#FFF" d="M26,32.6h-3c-0.7,0-1.2,0.5-1.2,1.2c0,0.7,0.5,1.2,1.2,1.2h3c0.7,0,1.2-0.5,1.2-1.2
		C27.2,33.2,26.7,32.6,26,32.6z"/>
	<path fill="#FFF" d="M35,32.6h-3c-0.7,0-1.2,0.5-1.2,1.2c0,0.7,0.5,1.2,1.2,1.2h3c0.7,0,1.2-0.5,1.2-1.2
		C36.2,33.2,35.6,32.6,35,32.6z"/>
	<path fill="#FFF" d="M43.9,32.6h-3c-0.7,0-1.2,0.5-1.2,1.2c0,0.7,0.5,1.2,1.2,1.2h3c0.7,0,1.2-0.5,1.2-1.2
		C45.1,33.2,44.6,32.6,43.9,32.6z"/>
	<path fill="#FFF" d="M52.9,32.6h-3c-0.7,0-1.2,0.5-1.2,1.2c0,0.7,0.5,1.2,1.2,1.2h3c0.7,0,1.2-0.5,1.2-1.2
		C54.1,33.2,53.6,32.6,52.9,32.6z"/>
	<path fill="#FFF" d="M58.9,35h3c0.7,0,1.2-0.5,1.2-1.2c0-0.7-0.5-1.2-1.2-1.2h-3c-0.7,0-1.2,0.5-1.2,1.2
		C57.7,34.5,58.2,35,58.9,35z"/>
	<path fill="#FFF" d="M67.8,35h3c0.7,0,1.2-0.5,1.2-1.2c0-0.7-0.5-1.2-1.2-1.2h-3c-0.7,0-1.2,0.5-1.2,1.2
		C66.7,34.5,67.2,35,67.8,35z"/>
	<path fill="#FFF" d="M26,70.5h-3c-0.7,0-1.2,0.5-1.2,1.2c0,0.7,0.5,1.2,1.2,1.2h3c0.7,0,1.2-0.5,1.2-1.2
		C27.2,71.1,26.7,70.5,26,70.5z"/>
	<path fill="#FFF" d="M35,70.5h-3c-0.7,0-1.2,0.5-1.2,1.2c0,0.7,0.5,1.2,1.2,1.2h3c0.7,0,1.2-0.5,1.2-1.2
		C36.2,71.1,35.6,70.5,35,70.5z"/>
	<path fill="#FFF" d="M43.9,70.5h-3c-0.7,0-1.2,0.5-1.2,1.2c0,0.7,0.5,1.2,1.2,1.2h3c0.7,0,1.2-0.5,1.2-1.2
		C45.1,71.1,44.6,70.5,43.9,70.5z"/>
	<path fill="#FFF" d="M52.9,70.5h-3c-0.7,0-1.2,0.5-1.2,1.2c0,0.7,0.5,1.2,1.2,1.2h3c0.7,0,1.2-0.5,1.2-1.2
		C54.1,71.1,53.6,70.5,52.9,70.5z"/>
	<path fill="#FFF" d="M61.9,70.5h-3c-0.7,0-1.2,0.5-1.2,1.2c0,0.7,0.5,1.2,1.2,1.2h3c0.7,0,1.2-0.5,1.2-1.2
		C63.1,71.1,62.5,70.5,61.9,70.5z"/>
	<path fill="#FFF" d="M70.8,70.5h-3c-0.7,0-1.2,0.5-1.2,1.2c0,0.7,0.5,1.2,1.2,1.2h3c0.7,0,1.2-0.5,1.2-1.2
		C72,71.1,71.5,70.5,70.8,70.5z"/>
</g>
</svg>
