<?xml version="1.0" encoding="utf-8"?>
<!-- Generator: Adobe Illustrator 18.1.1, SVG Export Plug-In . SVG Version: 6.00 Build 0)  -->
<svg version="1.1" id="Layer_1" xmlns="http://www.w3.org/2000/svg" xmlns:xlink="http://www.w3.org/1999/xlink" x="0px" y="0px"
	 viewBox="0 0 30 30" enable-background="new 0 0 30 30" xml:space="preserve">
<g>
	<path fill="#FFF" d="M19,12.7h0.7V9c0,0,0-0.1,0-0.1c0,0,0-0.1-0.1-0.1l-4.1-4.1c0,0-0.1-0.1-0.1-0.1c0,0-0.1,0-0.1,0H5.6
		c-0.2,0-0.3,0.2-0.3,0.3v17.8c0,0.2,0.2,0.3,0.3,0.3h8.7v-0.7H5.9V5.3h8.9V9c0,0.2,0.2,0.3,0.3,0.3H19V12.7z M15.5,5.8l2.9,2.9
		h-2.9V5.8z"/>
	<path fill="#FFF" d="M20.7,14.9c-2.8,0-5.1,2.3-5.1,5.1s2.3,5.1,5.1,5.1s5.1-2.3,5.1-5.1S23.5,14.9,20.7,14.9z M20.7,24.5
		c-2.5,0-4.5-2-4.5-4.5s2-4.5,4.5-4.5s4.5,2,4.5,4.5S23.1,24.5,20.7,24.5z"/>
	<path fill="#FFF" d="M22.1,20.1L21,21.5v-3.8c0-0.2-0.2-0.3-0.3-0.3s-0.3,0.2-0.3,0.3v3.9l-1.5-1.5c-0.1-0.1-0.4-0.1-0.5,0
		c-0.1,0.1-0.1,0.4,0,0.5l2.1,2.1c0,0,0,0,0,0l0.3,0.3l2-2.3c0.1-0.1,0.1-0.4,0-0.5C22.5,20,22.3,20,22.1,20.1z"/>
</g>
</svg>
