<?xml version="1.0" encoding="utf-8"?>
<!-- Generator: Adobe Illustrator 18.1.1, SVG Export Plug-In . SVG Version: 6.00 Build 0)  -->
<svg version="1.1" id="Layer_1" xmlns="http://www.w3.org/2000/svg" xmlns:xlink="http://www.w3.org/1999/xlink" x="0px" y="0px"
	 viewBox="0 0 100 100" enable-background="new 0 0 100 100" xml:space="preserve">
<path fill="#656565" d="M82.6,23.1H21.4c-4.9,0-8.4,3.4-8.4,8.4v36.2c0,4.8,3.5,8.4,8.1,8.4h61.5c4.6,0,8.4-3.7,8.4-8.4V31.5
	C91,26.5,87.6,23.1,82.6,23.1z M82.6,25.9c1.1,0,2,0.2,2.8,0.7L53.4,52L18.6,26.5c0.8-0.4,1.7-0.6,2.7-0.6H82.6z M88.2,67.7
	c0,3.1-2.4,5.6-5.6,5.6H21.1c-3.1,0-5.3-2.3-5.3-5.6V31.5c0-1.2,0.3-2.2,0.8-3l36,26.4c0.2,0.2,0.5,0.3,0.8,0.3
	c0.3,0,0.6-0.1,0.9-0.3l33.2-26.4c0.5,0.8,0.7,1.8,0.7,3V67.7z"/>
</svg>
