<?xml version="1.0" encoding="utf-8"?>
<!-- Generator: Adobe Illustrator 18.1.1, SVG Export Plug-In . SVG Version: 6.00 Build 0)  -->
<svg version="1.1" id="Layer_1" xmlns="http://www.w3.org/2000/svg" xmlns:xlink="http://www.w3.org/1999/xlink" x="0px" y="0px"
	 viewBox="0 0 100 100" enable-background="new 0 0 100 100" xml:space="preserve">
<g>
	<path fill="#656565" d="M55.1,81.8H41V53.9h-9.3V40.5h9.2C40,33,41.4,27,44.8,23c3.1-3.5,7.6-5.3,13.4-5.3c2.2,0,4.5,0.3,7,0.8
		l1,0.2v12H65c-0.4,0-0.9,0-1.5-0.1c-1-0.1-2.2-0.2-3.4-0.2c-3.1,0-4,0.7-4.3,1.1c-1,1.6-0.9,7.1-0.9,9.2c2,0,4.3,0,6.2,0
		c1.5,0,2.8,0,3.5,0H66l-0.2,1.4c0,0.2-0.2,1.1-0.3,2.3c-0.6,4-1.1,7.7-1.3,8.5l-0.2,0.9h-8.8V81.8z M43.5,79.4h9.1V51.4h9.3
		c0.3-1.7,0.8-5.3,1.1-7.3c0-0.3,0.1-0.6,0.1-0.9c-0.6,0-1.3,0-2.1,0c-2.3,0-5.1,0-7.3,0h-1.2v-1.2c0-0.2,0-0.5,0-0.9
		c-0.1-4.5,0-8.9,1.3-10.9c1-1.5,3-2.2,6.3-2.2c1.3,0,2.6,0.1,3.6,0.2c0,0,0.1,0,0.1,0v-7.5c-2-0.3-3.8-0.5-5.6-0.5
		c-5.1,0-9,1.5-11.6,4.5c-3.1,3.6-4.2,9.5-3.2,16.9l0.2,1.4h-9.5v8.5h9.3V79.4z"/>
</g>
</svg>
