<?xml version="1.0" encoding="utf-8"?>
<!-- Generator: Adobe Illustrator 18.1.1, SVG Export Plug-In . SVG Version: 6.00 Build 0)  -->
<svg version="1.1" id="Layer_1" xmlns="http://www.w3.org/2000/svg" xmlns:xlink="http://www.w3.org/1999/xlink" x="0px" y="0px"
	 viewBox="0 0 60 56" enable-background="new 0 0 60 56" xml:space="preserve">
<g>
	<path fill="#010101" d="M60,49c0-0.1,0-0.2-0.1-0.3L54,32.8V5c0-2.8-2.2-5-5-5H11C8.2,0,6,2.2,6,5v27.8L0.1,48.6
		C0,48.8,0,48.9,0,49c0,0,0,0,0,0v2c0,2.8,2.2,5,5,5h50c2.8,0,5-2.2,5-5L60,49C60,49,60,49,60,49z M8,5c0-1.7,1.3-3,3-3h38
		c1.7,0,3,1.3,3,3v27H8V5z M7.7,34h44.6l5.2,14H2.4L7.7,34z M58,51c0,1.7-1.3,3-3,3H5c-1.7,0-3-1.3-3-3v-1h56V51z"/>
	<path fill="#010101" d="M10,30h40V4H10V30z M12,6h36v22H12V6z"/>
	<path fill="#010101" d="M21.3,38l-2.7,8h22.8l-2.7-8H21.3z M21.4,44l1.3-4h14.6l1.3,4H21.4z"/>
</g>
</svg>
