<?xml version="1.0" encoding="utf-8"?>
<!-- Generator: Adobe Illustrator 18.1.1, SVG Export Plug-In . SVG Version: 6.00 Build 0)  -->
<svg version="1.0" id="Layer_1" xmlns="http://www.w3.org/2000/svg" xmlns:xlink="http://www.w3.org/1999/xlink" x="0px" y="0px"
	 viewBox="0 0 140 140" enable-background="new 0 0 140 140" xml:space="preserve">
<circle fill="#E31B4A" cx="70.1" cy="69.9" r="67.1"/>
<path fill="#FFFFFF" d="M85.3,70.8h-1.8v-2.7c0-0.5-0.4-0.9-0.9-0.9h-0.4l3.3-8.8c2.2-0.3,3.8-2.3,4.2-5.1c0.4-3.6-1.3-8-6.4-9.2
	c-0.4-0.1-0.7,0.1-0.9,0.4c-0.2,0.3-0.2,0.7,0,1c1.3,2.1,0.4,3.3-0.8,4.7c-0.5,0.6-0.9,1.1-1.2,1.8c-0.5,1.2-0.6,2.5-0.1,3.5
	c0.2,0.6,0.6,1.1,1,1.4l-5,9.1V44.8c0-0.5-0.4-0.9-0.9-0.9H64.7c-0.5,0-0.9,0.4-0.9,0.9v22.3h-0.4l-5.1-10.3c0,0,0-0.1-0.1-0.1
	c0,0,0,0,0-0.1c0,0,0,0-0.1-0.1S58,56.4,58,56.4v0.1l0,0l-6.3-3.6c-0.3-0.1-0.6-0.1-0.9,0c-0.3,0.2-0.4,0.5-0.4,0.8l0.9,7.1l0,0
	c0,0.1,0,0.1,0,0.1c0,0.1,0,0.1,0.1,0.1l2.9,5.9h-0.4c-0.5,0-0.9,0.4-0.9,0.9V92c0,3,2.3,5.4,5.4,5.4H78c3,0,5.4-2.3,5.4-5.4v-7h1.8
	c4.2,0,7.1-3,7.1-7.1S89.4,70.8,85.3,70.8z M82.1,52.7c0.1-0.4,0.6-0.8,0.9-1.3c0.9-1.1,2.1-2.7,1.8-4.8c2.5,1.4,3.5,4.2,3.2,6.6
	c-0.2,1.6-1.1,3.5-3,3.5l0,0c-0.4,0-0.9-0.1-1.4-0.3c-0.8-0.4-1.3-0.8-1.6-1.5C81.7,54.2,81.7,53.4,82.1,52.7z M82.9,58
	c0.3,0.1,0.5,0.2,0.8,0.3l-3.4,8.9h-2.5L82.9,58C82.8,58,82.8,58,82.9,58z M65.6,45.7h8.9v3.6H70c-0.5,0-0.9,0.4-0.9,0.9
	s0.4,0.9,0.9,0.9h4.5v1.8h-2.7c-0.5,0-0.9,0.4-0.9,0.9s0.4,0.9,0.9,0.9h2.7v1.8H70c-0.5,0-0.9,0.4-0.9,0.9s0.4,0.9,0.9,0.9h4.5V62
	h-2.7c-0.5,0-0.9,0.4-0.9,0.9s0.5,0.7,1,0.7h2.7v3.5h-9V45.7z M55.9,57.4l-3,2l-0.5-4L55.9,57.4z M53.3,61.2l3.9-2.5l4.2,8.5h-5.2
	L53.3,61.2z M81.7,92.2c0,2.1-1.5,3.6-3.6,3.6H58.4c-2,0-3.6-1.6-3.6-3.6V68.9h0.9h7.1l0,0h1.8h10.8h0.8l0,0l0,0h4.7l0,0l0,0h0.8
	L81.7,92.2L81.7,92.2z M85.3,83.3h-1.8V72.5h1.8c3.2,0,5.4,2.2,5.4,5.4S88.4,83.3,85.3,83.3z"/>
</svg>
