<?xml version="1.0" encoding="utf-8"?>
<!-- Generator: Adobe Illustrator 18.1.1, SVG Export Plug-In . SVG Version: 6.00 Build 0)  -->
<svg version="1.1" id="Layer_1" xmlns="http://www.w3.org/2000/svg" xmlns:xlink="http://www.w3.org/1999/xlink" x="0px" y="0px"
	 viewBox="0 0 100 100" enable-background="new 0 0 100 100" xml:space="preserve">
<path fill="#656565" d="M72.7,49.1h-2.5v-3.8c0-0.7-0.6-1.3-1.3-1.3h-0.6L73,31.6c3.1-0.4,5.4-3.2,5.9-7.2c0.6-5.1-1.9-11.3-9-13
	c-0.5-0.1-1,0.1-1.3,0.5c-0.3,0.4-0.3,1,0,1.4c1.9,2.9,0.5,4.7-1.1,6.7c-0.7,0.8-1.3,1.6-1.7,2.5c-0.7,1.7-0.8,3.5-0.1,5
	c0.3,0.8,0.8,1.5,1.4,2L60,42.4v-30c0-0.7-0.6-1.3-1.3-1.3H43.6c-0.7,0-1.3,0.6-1.3,1.3V44h-0.5l-7.2-14.5c0,0,0-0.1-0.1-0.1
	c0,0,0,0,0-0.1c0,0,0,0-0.1-0.1c-0.1-0.1-0.2-0.2-0.2-0.2c0,0-0.1-0.1-0.1-0.1c0,0,0,0,0,0l-8.9-5.1c-0.4-0.2-0.9-0.2-1.3,0
	c-0.4,0.3-0.6,0.7-0.6,1.2l1.3,10.1c0,0,0,0,0,0c0,0.1,0,0.1,0,0.1c0,0.1,0,0.2,0.1,0.2l4.1,8.3h-0.5c-0.7,0-1.3,0.6-1.3,1.3v34.2
	c0,4.3,3.3,7.6,7.6,7.6h27.8c4.3,0,7.6-3.3,7.6-7.6V69.3h2.5c5.9,0,10.1-4.3,10.1-10.1S78.5,49.1,72.7,49.1z M68.1,23.6
	c0.2-0.6,0.8-1.2,1.3-1.9c1.3-1.6,3-3.8,2.5-6.8c3.6,2,4.9,6,4.5,9.3c-0.3,2.3-1.5,5-4.2,5h0c-0.6,0-1.3-0.2-2-0.4
	c-1.1-0.5-1.9-1.2-2.3-2.1C67.6,25.7,67.6,24.6,68.1,23.6z M69.3,31c0.4,0.2,0.7,0.3,1.1,0.4L65.6,44H62L69.3,31
	C69.2,31,69.2,31,69.3,31z M44.8,13.7h12.6v5.1h-6.3c-0.7,0-1.3,0.6-1.3,1.3s0.6,1.3,1.3,1.3h6.3v2.5h-3.8c-0.7,0-1.3,0.6-1.3,1.3
	s0.6,1.3,1.3,1.3h3.8v2.5h-6.3c-0.7,0-1.3,0.6-1.3,1.3s0.6,1.3,1.3,1.3h6.3v5.1h-3.8c-0.7,0-1.3,0.6-1.3,1.3S53,39,53.7,39h3.8V44
	H44.8V13.7z M31.1,30.2L26.9,33l-0.7-5.6L31.1,30.2z M27.5,35.6l5.5-3.6L39,44h-7.3L27.5,35.6z M67.6,79.4c0,2.9-2.1,5.1-5.1,5.1
	H34.7c-2.8,0-5.1-2.2-5.1-5.1V46.5h1.3H41h0h2.5h15.2h1.1h0c0,0,0,0,0,0h6.6h0h0h1.1V79.4z M72.7,66.8h-2.5V51.6h2.5
	c4.5,0,7.6,3.1,7.6,7.6S77.1,66.8,72.7,66.8z"/>
</svg>
