<?xml version="1.0" encoding="utf-8"?>
<!-- Generator: Adobe Illustrator 18.1.1, SVG Export Plug-In . SVG Version: 6.00 Build 0)  -->
<svg version="1.1" id="Layer_1" xmlns="http://www.w3.org/2000/svg" xmlns:xlink="http://www.w3.org/1999/xlink" x="0px" y="0px"
	 viewBox="0 0 100 100" enable-background="new 0 0 100 100" xml:space="preserve">
<g>
	<path fill="#fff" d="M73.7,50.5c-0.6,0-1.1,0.5-1.1,1.1v24.9h-13V57H42.3v19.5h-13V51.6c0-0.6-0.5-1.1-1.1-1.1c-0.6,0-1.1,0.5-1.1,1.1v27.1
		h17.3V59.1h13v19.5h17.3V51.6C74.8,51,74.3,50.5,73.7,50.5z"/>
	<path fill="#fff" d="M83.2,49.7L51.8,18.3c-0.4-0.4-1.1-0.4-1.5,0L18.8,49.7c-0.4,0.4-0.4,1.1,0,1.5c0.4,0.4,1.1,0.4,1.5,0L51,20.6l30.6,30.6
		c0.2,0.2,0.5,0.3,0.8,0.3s0.6-0.1,0.8-0.3C83.6,50.8,83.6,50.1,83.2,49.7z"/>
	<path fill="#fff" d="M60.7,22.3h9.7v9.7c0,0.6,0.5,1.1,1.1,1.1c0.6,0,1.1-0.5,1.1-1.1V20.2H60.7c-0.6,0-1.1,0.5-1.1,1.1
		C59.7,21.8,60.1,22.3,60.7,22.3z"/>
</g>
</svg>
