<?xml version="1.0" encoding="utf-8"?>
<!-- Generator: Adobe Illustrator 18.1.1, SVG Export Plug-In . SVG Version: 6.00 Build 0)  -->
<svg version="1.1" id="Layer_1" xmlns="http://www.w3.org/2000/svg" xmlns:xlink="http://www.w3.org/1999/xlink" x="0px" y="0px"
	 viewBox="0 0 100 100" enable-background="new 0 0 100 100" xml:space="preserve">
<path fill="#FFF" d="M83.1,25.3c-0.2-0.3-0.5-0.6-0.9-0.6c-0.4-0.1-0.8,0.1-1,0.3l-9.5,9.5h-5.3v-6.7l8.3-9.5
	c0.2-0.3,0.3-0.6,0.3-1c-0.1-0.4-0.3-0.7-0.6-0.8c-2.9-1.5-6.1-2.3-9.4-2.3c-5.5,0-10.7,2.1-14.6,6c-6.1,6.1-7.8,15.3-4.2,23.1
	L17.5,72c-1.4,1.3-2.1,3.1-2.1,5c0,1.9,0.7,3.7,2.1,5.1c1.3,1.3,3.1,2.1,5,2.1c1.9,0,3.7-0.7,5-2.1l28.7-28.7
	c2.7,1.2,5.6,1.9,8.6,1.9c0,0,0,0,0,0c5.5,0,10.6-2.1,14.5-6C85.7,42.9,87.2,33.3,83.1,25.3z M77.7,47.6c-3.4,3.4-8,5.3-12.9,5.3h0
	c-2.9,0-5.7-0.7-8.3-2c-0.5-0.2-1-0.1-1.4,0.2L25.9,80.4c-0.9,0.9-2.1,1.4-3.4,1.4c-1.3,0-2.5-0.5-3.4-1.4c-0.9-0.9-1.4-2.1-1.4-3.4
	c0-1.3,0.5-2.5,1.4-3.4l29.3-29.3c0.4-0.4,0.5-0.9,0.2-1.4C45,36,46.4,27.5,52,21.8c3.4-3.4,8-5.3,12.9-5.3c2.4,0,4.8,0.5,6.9,1.4
	l-7.6,8.7c-0.2,0.2-0.3,0.5-0.3,0.8v8.4c0,0.7,0.5,1.2,1.2,1.2h6.9c0.3,0,0.6-0.1,0.8-0.3l8.7-8.6C84.4,34.6,82.9,42.3,77.7,47.6z"
	/>
</svg>
