<?xml version="1.0" encoding="utf-8"?>
<!-- Generator: Adobe Illustrator 18.1.1, SVG Export Plug-In . SVG Version: 6.00 Build 0)  -->
<svg version="1.0" id="Layer_1" xmlns="http://www.w3.org/2000/svg" xmlns:xlink="http://www.w3.org/1999/xlink" x="0px" y="0px"
	 viewBox="0 0 140 140" enable-background="new 0 0 140 140" xml:space="preserve">
<circle fill="#F75B22" cx="70.1" cy="69.9" r="67.1"/>
<path fill="#FFFFFF" d="M96.9,52.6c-0.2-0.2-0.4-0.5-0.7-0.5c-0.3-0.1-0.6,0.1-0.8,0.2l-7.3,7.3H84v-5.2l6.4-7.3
	c0.2-0.2,0.2-0.5,0.2-0.8c-0.1-0.3-0.2-0.5-0.5-0.6c-2.2-1.2-4.7-1.8-7.3-1.8c-4.2,0-8.3,1.6-11.3,4.6c-4.7,4.7-6,11.8-3.2,17.8
	L46.2,88.6c-1.1,1-1.6,2.4-1.6,3.9s0.5,2.9,1.6,3.9c1,1,2.4,1.6,3.9,1.6s2.9-0.5,3.9-1.6l22.1-22.1c2.1,0.9,4.3,1.5,6.6,1.5l0,0
	c4.2,0,8.2-1.6,11.2-4.6C98.9,66.1,100,58.7,96.9,52.6z M92.7,69.8c-2.6,2.6-6.2,4.1-10,4.1l0,0c-2.2,0-4.4-0.5-6.4-1.5
	c-0.4-0.2-0.8-0.1-1.1,0.2L52.7,95.1c-0.7,0.7-1.6,1.1-2.6,1.1s-1.9-0.4-2.6-1.1c-0.7-0.7-1.1-1.6-1.1-2.6s0.4-1.9,1.1-2.6
	l22.6-22.6c0.3-0.3,0.4-0.7,0.2-1.1c-2.8-5.3-1.7-11.9,2.6-16.3c2.6-2.6,6.2-4.1,10-4.1c1.9,0,3.7,0.4,5.3,1.1l-5.9,6.7
	c-0.2,0.2-0.2,0.4-0.2,0.6v6.5c0,0.5,0.4,0.9,0.9,0.9h5.3c0.2,0,0.5-0.1,0.6-0.2l6.7-6.6C97.9,59.7,96.7,65.7,92.7,69.8z"/>
</svg>
