<?xml version="1.0" encoding="utf-8"?>
<!-- Generator: Adobe Illustrator 18.1.1, SVG Export Plug-In . SVG Version: 6.00 Build 0)  -->
<svg version="1.1" id="Layer_1" xmlns="http://www.w3.org/2000/svg" xmlns:xlink="http://www.w3.org/1999/xlink" x="0px" y="0px"
	 viewBox="0 0 100 100" enable-background="new 0 0 100 100" xml:space="preserve">
<g>
	<path fill="#FFF" d="M87,35.3c0-3.3-2.7-6-6-6s-6,2.7-6,6c0,2.8,2,5.2,4.6,5.8c-0.8,3.6-3.9,13.4-13,13.4
		c-9.4,0-13.2-14.9-14.2-19.4c3.3-0.7,5.8-3.6,5.8-7.1c0-4-3.2-7.2-7.2-7.2s-7.2,3.2-7.2,7.2c0,3.5,2.5,6.4,5.9,7.1
		c-0.7,4.4-3.7,19.4-13.1,19.4c-9.1,0-13-9.9-14.1-13.4c2.6-0.7,4.5-3,4.5-5.8c0-3.3-2.7-6-6-6s-6,2.7-6,6c0,3,2.2,5.4,5,5.9l5.9,34
		c0.1,0.6,0.6,1,1.2,1H75c0.6,0,1.1-0.4,1.2-1l5.9-34C84.8,40.7,87,38.3,87,35.3z M46.1,28.1c0-2.7,2.2-4.8,4.8-4.8s4.8,2.2,4.8,4.8
		s-2.2,4.8-4.8,4.8S46.1,30.8,46.1,28.1z M17.3,35.3c0-2,1.6-3.6,3.6-3.6s3.6,1.6,3.6,3.6c0,2-1.6,3.6-3.6,3.6S17.3,37.3,17.3,35.3z
		 M74,73.8H27.9l-4.2-24.3C27,54.4,31.4,57,36.5,57c9,0,12.9-10.3,14.6-17c2,6.7,6.5,17,15.5,17c5.4,0,9-2.8,11.3-6.1L74,73.8z
		 M81,38.9c-2,0-3.6-1.6-3.6-3.6c0-2,1.6-3.6,3.6-3.6c2,0,3.6,1.6,3.6,3.6C84.6,37.3,83,38.9,81,38.9z"/>
	<path fill="#FFF" d="M75,78.6H26.9c-0.7,0-1.2,0.5-1.2,1.2c0,0.7,0.5,1.2,1.2,1.2H75c0.7,0,1.2-0.5,1.2-1.2
		C76.2,79.1,75.6,78.6,75,78.6z"/>
</g>
</svg>
