<?xml version="1.0" encoding="utf-8"?>
<!-- Generator: Adobe Illustrator 18.1.1, SVG Export Plug-In . SVG Version: 6.00 Build 0)  -->
<svg version="1.1" id="Layer_1" xmlns="http://www.w3.org/2000/svg" xmlns:xlink="http://www.w3.org/1999/xlink" x="0px" y="0px"
	 viewBox="0 0 60 60" enable-background="new 0 0 60 60" xml:space="preserve">
<g>
	<path fill="#010101" d="M22,28.1c1.7,0,4-0.7,6-3.9c3.7,6.6,5,12,5,12c0.1,0.4,0.5,0.8,0.9,0.8c0,0,0,0,0,0c0.4,0,0.8-0.3,0.9-0.7
		c0-0.1,1.3-3.7,3.9-7.4c1.6,2.9,3.7,3.5,5.3,3.5c0,0,0,0,0,0c1.9,0,4-1,5.6-2.8c3.2-3.3,4.3-12.4,2.2-17.1
		c-0.1-0.3-0.4-0.5-0.7-0.6c-0.3-0.1-0.6,0-0.8,0.2C48.1,13.9,46,14.4,44,15c-1.8,0.5-3.7,1-5.5,2.2c-2.1,1.4-3.3,3.4-3.3,5.4
		c0,1.2,0.5,3,2.5,4.6c-1.6,2.1-2.7,4.2-3.5,5.8c-0.8-2.4-2.3-6.3-4.8-10.5c2.9-1.5,4.6-3.4,5.1-5.7c0.8-3.6-1.4-6.8-2.7-8.4
		c-2.3-2.7-5.6-3.5-9.1-4.3c-3.1-0.8-6.4-1.5-9.1-3.8C13.4,0,13.1,0,12.8,0c-0.3,0.1-0.6,0.2-0.7,0.5C8.7,7,10.5,19.2,14.2,23.6
		C16.6,26.5,19.5,28.1,22,28.1z M37.1,22.6c0-1.3,0.9-2.7,2.4-3.7c1.6-1.1,3.2-1.5,4.9-1.9c1.8-0.5,3.9-1,6-2.4
		c1.3,4.4,0,11.4-2.2,13.8c-1.3,1.3-2.8,2.2-4.2,2.2h0c-1.9,0-3.2-1.7-3.9-3.3c1.4-1.7,3.2-3.3,5.3-4.3c0.5-0.2,0.7-0.8,0.4-1.3
		c-0.2-0.5-0.8-0.7-1.3-0.4c-2.2,1.1-4.1,2.8-5.7,4.5C37.7,24.7,37.1,23.6,37.1,22.6z M13.4,2.6c2.8,2,6,2.7,8.9,3.4
		c3.3,0.8,6.1,1.5,8,3.7c1.9,2.3,2.8,4.7,2.3,6.7c-0.4,1.8-1.8,3.3-4.2,4.4C25.9,17,22.8,13,18.7,9.3c-0.4-0.4-1-0.3-1.4,0.1
		c-0.4,0.4-0.3,1,0.1,1.4c4.1,3.7,7.1,7.7,9.5,11.4c-1.3,2.6-2.9,3.9-4.8,3.9c-1.9,0-4.2-1.4-6.2-3.7C12.6,18.7,11.1,8.5,13.4,2.6z"
		/>
	<path fill="#010101" d="M59.7,46.3c-2.3-2.3-4.9-4.2-8.5-3.2L42,46.2c0-0.1,0-0.1,0-0.2c0-2-1.4-4-4-4c-1.7,0-2.8,0-3.7,0
		c-1.3,0-2.1,0-3.9,0c-3.4-2.6-7.3-4-11.3-4h-7v-1c0-0.6-0.4-1-1-1H1c-0.6,0-1,0.4-1,1v18c0,0.6,0.4,1,1,1h10c0.6,0,1-0.4,1-1v-0.8
		c2.5,0.8,4.6,1.6,6.5,2.2c6.4,2.2,10,3.5,13.4,3.5c4.2,0,8-2,16.4-6.4c3-1.5,6.6-3.5,11.1-5.7c0.3-0.1,0.5-0.4,0.5-0.7
		C60,46.8,59.9,46.5,59.7,46.3z M10,54H2V38h8V54z M47.4,51.8c-14.5,7.6-14.5,7.6-28.2,2.8c-2.1-0.7-4.4-1.6-7.2-2.5V40h7
		c3.7,0,7.2,1.3,10.4,3.8c0.2,0.1,0.4,0.2,0.6,0.2c2,0,2.9,0,4.3,0c0.9,0,2,0,3.7,0c1.5,0,2,1.1,2,2c0,0.9-0.5,2-2,2H24
		c-0.6,0-1,0.4-1,1s0.4,1,1,1h14c1.4,0,2.4-0.6,3.1-1.4L51.8,45c1.9-0.5,3.5-0.1,5.5,1.7C53.4,48.7,50.1,50.4,47.4,51.8z"/>
</g>
</svg>
