<?xml version="1.0" encoding="utf-8"?>
<!-- Generator: Adobe Illustrator 18.1.1, SVG Export Plug-In . SVG Version: 6.00 Build 0)  -->
<svg version="1.1" id="Layer_1" xmlns="http://www.w3.org/2000/svg" xmlns:xlink="http://www.w3.org/1999/xlink" x="0px" y="0px"
	 viewBox="0 0 100 100" enable-background="new 0 0 100 100" xml:space="preserve">
<g>
	<path fill="#FFF" d="M81.9,76.5L58.8,47.6V35.1h2.3c0.6,0,1.2-0.5,1.2-1.2c0-0.6-0.5-1.2-1.2-1.2h-3.5h-14H40c-0.6,0-1.2,0.5-1.2,1.2
		c0,0.6,0.5,1.2,1.2,1.2h2.3v12.5L19.2,76.5C19.1,76.8,19,77,19,77.3c0,3.9,3.2,7,7,7h49.2c3.9,0,7-3.1,7-7
		C82.2,77,82.1,76.8,81.9,76.5z M44.5,48.7c0.2-0.2,0.3-0.5,0.3-0.7V35.1h11.7V48c0,0.3,0.1,0.5,0.3,0.7l9.7,12.1H34.8L44.5,48.7z
		 M75.2,82H26c-2.5,0-4.5-1.9-4.7-4.3l11.6-14.4h35.4l11.6,14.4C79.7,80.1,77.7,82,75.2,82z"/>
	<path fill="#FFF" d="M33,28.1c2.6,0,4.7-2.1,4.7-4.7s-2.1-4.7-4.7-4.7c-2.6,0-4.7,2.1-4.7,4.7S30.4,28.1,33,28.1z M33,21.1
		c1.3,0,2.3,1.1,2.3,2.3s-1.1,2.3-2.3,2.3c-1.3,0-2.3-1.1-2.3-2.3S31.7,21.1,33,21.1z"/>
	<path fill="#FFF" d="M51.8,28.1c3.9,0,7-3.2,7-7s-3.2-7-7-7s-7,3.2-7,7S47.9,28.1,51.8,28.1z M51.8,16.4c2.6,0,4.7,2.1,4.7,4.7
		s-2.1,4.7-4.7,4.7c-2.6,0-4.7-2.1-4.7-4.7S49.2,16.4,51.8,16.4z"/>
	<path fill="#FFF" d="M69.3,28.1c1.9,0,3.5-1.6,3.5-3.5s-1.6-3.5-3.5-3.5c-1.9,0-3.5,1.6-3.5,3.5S67.4,28.1,69.3,28.1z M69.3,23.4
		c0.6,0,1.2,0.5,1.2,1.2c0,0.6-0.5,1.2-1.2,1.2s-1.2-0.5-1.2-1.2C68.2,23.9,68.7,23.4,69.3,23.4z"/>
</g>
</svg>
