<?xml version="1.0" encoding="utf-8"?>
<!-- Generator: Adobe Illustrator 18.1.1, SVG Export Plug-In . SVG Version: 6.00 Build 0)  -->
<svg version="1.1" id="Layer_1" xmlns="http://www.w3.org/2000/svg" xmlns:xlink="http://www.w3.org/1999/xlink" x="0px" y="0px"
	 viewBox="0 0 100 100" enable-background="new 0 0 100 100" xml:space="preserve">
<path fill="#231F20" d="M50.4,16.2c-19,0-34.4,15.4-34.4,34.4c0,9.1,3.5,17.7,10,24.2l0,0l0,0C32.5,81.4,41.2,85,50.4,85
	c9.3,0,18-3.6,24.5-10.3c6.4-6.5,9.9-15.1,9.9-24.2C84.9,31.6,69.4,16.2,50.4,16.2z M28.6,74.2c3-1.7,7.6-3.4,12-5
	c1.5-0.5,3-1.1,4.4-1.6c0.4-0.2,0.7-0.6,0.7-1.1v-7.2c0-0.5-0.3-0.9-0.8-1.1c-0.1-0.1-3.6-1.4-3.6-7.6c0-0.6-0.5-1.1-1.1-1.1
	c-0.3,0-0.6-0.8-0.6-1.7c0-1,0.4-1.7,0.6-1.7c0.6,0,1.1-0.5,1.1-1.1c0-0.3-0.1-0.7-0.3-1.5c-0.4-1.6-1.6-5.7-0.5-7.1
	c0.2-0.2,0.5-0.5,1.3-0.5c0.3,0,0.6,0,1,0.1c0.6,0.1,1.2-0.3,1.3-0.8c0.5-2,4-3.5,8.3-3.5s7.8,1.5,8.3,3.5c0.7,2.7-0.5,6.5-1.1,8.3
	c-0.3,0.8-0.4,1.2-0.4,1.6c0,0.6,0.5,1.1,1.1,1.1c0.3,0,0.6,0.8,0.6,1.7c0,1-0.4,1.7-0.6,1.7c-0.6,0-1.1,0.5-1.1,1.1
	c0,6.2-3.4,7.5-3.6,7.6c-0.5,0.2-0.8,0.6-0.8,1.1v7.2c0,0.5,0.3,0.9,0.7,1.1c1.6,0.6,3.1,1.2,4.7,1.7c4.6,1.7,9,3.2,11.8,4.9
	c-6,5.5-13.7,8.6-21.8,8.6C42.3,82.7,34.6,79.7,28.6,74.2z M74,72.5c-3-1.8-7.5-3.5-12.7-5.4c-1.3-0.5-2.6-0.9-3.9-1.4V60
	c1.4-0.8,4.1-3,4.3-8.5c1.1-0.6,1.8-2,1.8-3.8c0-1.7-0.6-3-1.6-3.6c0-0.1,0-0.1,0-0.2c0.7-2.2,2-6.2,1.1-9.5
	c-1-3.8-6.3-5.2-10.5-5.2c-3.9,0-8.6,1.1-10.2,4.2c-2-0.2-3.1,0.7-3.7,1.4c-1.8,2.3-0.5,6.7,0.1,9.1c0,0,0,0.1,0,0.1
	c-1,0.6-1.6,2-1.6,3.6c0,1.8,0.7,3.2,1.8,3.8c0.3,5.5,3,7.7,4.3,8.5v5.7c-1.2,0.4-2.4,0.9-3.6,1.3c-4.8,1.7-9.8,3.5-12.9,5.5
	c-5.6-6-8.6-13.7-8.6-21.9c0-17.7,14.4-32.1,32.1-32.1s32.1,14.4,32.1,32.1C82.6,58.8,79.5,66.5,74,72.5z"/>
</svg>
