<?xml version="1.0" encoding="utf-8"?>
<!-- Generator: Adobe Illustrator 18.1.1, SVG Export Plug-In . SVG Version: 6.00 Build 0)  -->
<svg version="1.1" id="Layer_1" xmlns="http://www.w3.org/2000/svg" xmlns:xlink="http://www.w3.org/1999/xlink" x="0px" y="0px"
	 viewBox="0 0 100 100" enable-background="new 0 0 100 100" xml:space="preserve">
<g>
	<path fill="#FFF" d="M50.9,30.5h5.6c0.6,0,1.1-0.5,1.1-1.1c0-0.6-0.5-1.1-1.1-1.1h-5.6c-0.6,0-1.1,0.5-1.1,1.1
		C49.8,30,50.3,30.5,50.9,30.5z"/>
	<path fill="#FFF" d="M69.3,35H53.7c-0.6,0-1.1,0.5-1.1,1.1c0,0.6,0.5,1.1,1.1,1.1h15.5c0.6,0,1.1-0.5,1.1-1.1
		C70.4,35.5,69.9,35,69.3,35z"/>
	<path fill="#FFF" d="M49.5,41.7h18.3c0.6,0,1.1-0.5,1.1-1.1c0-0.6-0.5-1.1-1.1-1.1H49.5c-0.6,0-1.1,0.5-1.1,1.1
		C48.4,41.2,48.9,41.7,49.5,41.7z"/>
	<path fill="#FFF" d="M69.3,44H49.5c-0.6,0-1.1,0.5-1.1,1.1c0,0.6,0.5,1.1,1.1,1.1h19.7c0.6,0,1.1-0.5,1.1-1.1
		C70.4,44.5,69.9,44,69.3,44z"/>
	<path fill="#FFF" d="M66.4,50.7c0.6,0,1.1-0.5,1.1-1.1c0-0.6-0.5-1.1-1.1-1.1H49.5c-0.6,0-1.1,0.5-1.1,1.1
		c0,0.6,0.5,1.1,1.1,1.1H66.4z"/>
	<path fill="#FFF" d="M67.9,52.9H48.1c-0.6,0-1.1,0.5-1.1,1.1c0,0.6,0.5,1.1,1.1,1.1h19.7c0.6,0,1.1-0.5,1.1-1.1
		C69,53.4,68.5,52.9,67.9,52.9z"/>
	<path fill="#FFF" d="M82.6,17.9c-0.5-0.5-1.1-0.8-1.8-0.8H45c-0.9,0-1.7,0.3-2.3,1c-1.5,1.6-1.4,4.8-1.4,5.1
		c0,0.2,0.1,23.3-2.8,38.7H24.9c-1.1,0-2,0.4-2.7,1.1c-1.6,1.6-1.4,4.7-1.3,7.9c0.1,3,0.3,6.5-1.2,8c-0.6,0.6-1.5,0.9-2.6,0.9V82
		h34.7c3.5,0,5.2-1.9,5.9-4.5h12c1.1,0,2.1-0.5,3.1-1.4c6-6.2,6.2-35.4,6-47.8h5.4l0.1-1C84.3,26.1,84.6,20,82.6,17.9z M51.8,79.8
		H21.9c1.6-2.2,1.4-5.7,1.3-9c-0.1-2.6-0.2-5.3,0.7-6.3c0.2-0.2,0.4-0.4,1.1-0.4h14.5h0.9h16.8c-0.8,1.8-0.9,4.3-0.9,6.7
		C56.1,76.4,55.7,79.8,51.8,79.8z M58.4,70.8c0.1-4.6,0.3-6.7,2.3-6.7c1.9,0,2.2,1.1,2.3,4.8c0.1,2,0.1,4.6,1.4,6.4h-6.3
		C58.4,73.8,58.4,72.2,58.4,70.8z M71.1,74.6c-0.5,0.5-0.9,0.7-1.4,0.7c-4.1,0-4.3-2.5-4.4-6.5c-0.1-2.9-0.2-7-4.5-7H40.8
		c2.9-15.6,2.8-38.5,2.8-38.8c0-1,0.1-2.8,0.8-3.5c0.2-0.2,0.4-0.3,0.7-0.3h32.1c-0.6,1.1-0.8,2.5-0.8,3.4
		C76.8,35.1,76.8,68.6,71.1,74.6z M82,26.1h-3.3c0-1.9-0.1-3.1-0.1-3.4c0-0.1,0-3.4,2.2-3.4c0,0,0.1,0,0.2,0.1
		C81.8,20.3,82.1,23.6,82,26.1z"/>
</g>
</svg>
