<?xml version="1.0" encoding="utf-8"?>
<!-- Generator: Adobe Illustrator 18.1.1, SVG Export Plug-In . SVG Version: 6.00 Build 0)  -->
<svg version="1.1" id="Layer_1" xmlns="http://www.w3.org/2000/svg" xmlns:xlink="http://www.w3.org/1999/xlink" x="0px" y="0px"
	 viewBox="0 0 100 100" enable-background="new 0 0 100 100" xml:space="preserve">
<g>
	<path fill="#231F20" d="M50.4,14.8c-18.5,0-33.6,15.1-33.6,33.6S31.8,82,50.4,82S84,66.9,84,48.4S68.9,14.8,50.4,14.8z M50.4,79.1
		c-16.9,0-30.7-13.8-30.7-30.7s13.8-30.7,30.7-30.7s30.7,13.8,30.7,30.7S67.3,79.1,50.4,79.1z"/>
	<path fill="#231F20" d="M59.1,67.4h-7.3V42.5c0-0.8-0.7-1.5-1.5-1.5h-5.8c-0.8,0-1.5,0.7-1.5,1.5c0,0.8,0.7,1.5,1.5,1.5h4.4v23.4
		h-7.3c-0.8,0-1.5,0.7-1.5,1.5s0.7,1.5,1.5,1.5h17.5c0.8,0,1.5-0.7,1.5-1.5S60,67.4,59.1,67.4z"/>
	<path fill="#231F20" d="M48.9,32.3c1.6,0,2.9-1.3,2.9-2.9s-1.3-2.9-2.9-2.9S46,27.8,46,29.4S47.3,32.3,48.9,32.3z M48.9,29.4l0,1.5
		L48.9,29.4L48.9,29.4z"/>
</g>
</svg>
